<mxfile host="app.diagrams.net" modified="2023-05-24T09:39:48.551Z" agent="Mozilla/5.0 (Windows NT 10.0; Win64; x64) AppleWebKit/537.36 (KHTML, like Gecko) Chrome/113.0.0.0 Safari/537.36" etag="LQmZW7NC-9L6znM1-QCh" version="21.3.3" type="device">
  <diagram name="Страница 1" id="DM5A7a2sBH60GUnruqmK">
    <mxGraphModel dx="1628" dy="753" grid="0" gridSize="10" guides="1" tooltips="1" connect="1" arrows="1" fold="1" page="1" pageScale="1" pageWidth="1654" pageHeight="1169" math="0" shadow="0">
      <root>
        <mxCell id="0" />
        <mxCell id="1" parent="0" />
        <mxCell id="xIKeQf0XdznSWOi6v45g-2" value="" style="shape=umlLifeline;perimeter=lifelinePerimeter;whiteSpace=wrap;html=1;container=1;dropTarget=0;collapsible=0;recursiveResize=0;outlineConnect=0;portConstraint=eastwest;newEdgeStyle={&quot;edgeStyle&quot;:&quot;elbowEdgeStyle&quot;,&quot;elbow&quot;:&quot;vertical&quot;,&quot;curved&quot;:0,&quot;rounded&quot;:0};participant=umlActor;" parent="1" vertex="1">
          <mxGeometry x="87" y="141" width="20" height="876" as="geometry" />
        </mxCell>
        <mxCell id="xIKeQf0XdznSWOi6v45g-8" value="" style="shape=umlDestroy;whiteSpace=wrap;html=1;strokeWidth=1;targetShapes=umlLifeline;" parent="xIKeQf0XdznSWOi6v45g-2" vertex="1">
          <mxGeometry y="866" width="19" height="21" as="geometry" />
        </mxCell>
        <mxCell id="uNYKcoVuDFgx-AQFCIqF-11" value="REST API" style="shape=umlLifeline;perimeter=lifelinePerimeter;whiteSpace=wrap;html=1;container=1;dropTarget=0;collapsible=0;recursiveResize=0;outlineConnect=0;portConstraint=eastwest;newEdgeStyle={&quot;edgeStyle&quot;:&quot;elbowEdgeStyle&quot;,&quot;elbow&quot;:&quot;vertical&quot;,&quot;curved&quot;:0,&quot;rounded&quot;:0};fontFamily=Times New Roman;fontSize=20;" parent="1" vertex="1">
          <mxGeometry x="620" y="139" width="100" height="891" as="geometry" />
        </mxCell>
        <mxCell id="uNYKcoVuDFgx-AQFCIqF-17" value="" style="html=1;points=[];perimeter=orthogonalPerimeter;outlineConnect=0;targetShapes=umlLifeline;portConstraint=eastwest;newEdgeStyle={&quot;edgeStyle&quot;:&quot;elbowEdgeStyle&quot;,&quot;elbow&quot;:&quot;vertical&quot;,&quot;curved&quot;:0,&quot;rounded&quot;:0};" parent="uNYKcoVuDFgx-AQFCIqF-11" vertex="1">
          <mxGeometry x="45" y="111" width="10" height="100" as="geometry" />
        </mxCell>
        <mxCell id="uNYKcoVuDFgx-AQFCIqF-32" value="" style="html=1;points=[];perimeter=orthogonalPerimeter;outlineConnect=0;targetShapes=umlLifeline;portConstraint=eastwest;newEdgeStyle={&quot;edgeStyle&quot;:&quot;elbowEdgeStyle&quot;,&quot;elbow&quot;:&quot;vertical&quot;,&quot;curved&quot;:0,&quot;rounded&quot;:0};" parent="uNYKcoVuDFgx-AQFCIqF-11" vertex="1">
          <mxGeometry x="45" y="361" width="10" height="410" as="geometry" />
        </mxCell>
        <mxCell id="xIKeQf0XdznSWOi6v45g-6" value="" style="shape=umlDestroy;whiteSpace=wrap;html=1;strokeWidth=1;targetShapes=umlLifeline;" parent="uNYKcoVuDFgx-AQFCIqF-11" vertex="1">
          <mxGeometry x="40.5" y="879" width="19" height="21" as="geometry" />
        </mxCell>
        <mxCell id="uNYKcoVuDFgx-AQFCIqF-12" value="Сервис управления задачами" style="shape=umlLifeline;perimeter=lifelinePerimeter;whiteSpace=wrap;html=1;container=1;dropTarget=0;collapsible=0;recursiveResize=0;outlineConnect=0;portConstraint=eastwest;newEdgeStyle={&quot;edgeStyle&quot;:&quot;elbowEdgeStyle&quot;,&quot;elbow&quot;:&quot;vertical&quot;,&quot;curved&quot;:0,&quot;rounded&quot;:0};fontFamily=Times New Roman;fontSize=20;size=74;" parent="1" vertex="1">
          <mxGeometry x="876" y="139" width="100" height="889" as="geometry" />
        </mxCell>
        <mxCell id="uNYKcoVuDFgx-AQFCIqF-20" value="" style="html=1;points=[];perimeter=orthogonalPerimeter;outlineConnect=0;targetShapes=umlLifeline;portConstraint=eastwest;newEdgeStyle={&quot;edgeStyle&quot;:&quot;elbowEdgeStyle&quot;,&quot;elbow&quot;:&quot;vertical&quot;,&quot;curved&quot;:0,&quot;rounded&quot;:0};" parent="uNYKcoVuDFgx-AQFCIqF-12" vertex="1">
          <mxGeometry x="45" y="119" width="10" height="72" as="geometry" />
        </mxCell>
        <mxCell id="uNYKcoVuDFgx-AQFCIqF-33" value="" style="html=1;points=[];perimeter=orthogonalPerimeter;outlineConnect=0;targetShapes=umlLifeline;portConstraint=eastwest;newEdgeStyle={&quot;edgeStyle&quot;:&quot;elbowEdgeStyle&quot;,&quot;elbow&quot;:&quot;vertical&quot;,&quot;curved&quot;:0,&quot;rounded&quot;:0};" parent="uNYKcoVuDFgx-AQFCIqF-12" vertex="1">
          <mxGeometry x="45" y="369" width="10" height="390" as="geometry" />
        </mxCell>
        <mxCell id="uNYKcoVuDFgx-AQFCIqF-16" value="Переход на страницу &lt;br style=&quot;font-size: 20px;&quot;&gt;с доской задач" style="html=1;verticalAlign=bottom;endArrow=classicThin;edgeStyle=elbowEdgeStyle;elbow=vertical;curved=0;rounded=0;endFill=1;fontFamily=Times New Roman;fontSize=20;" parent="1" source="uNYKcoVuDFgx-AQFCIqF-14" target="uNYKcoVuDFgx-AQFCIqF-15" edge="1">
          <mxGeometry y="-59" width="80" relative="1" as="geometry">
            <mxPoint x="260" y="240" as="sourcePoint" />
            <mxPoint x="340" y="240" as="targetPoint" />
            <Array as="points">
              <mxPoint x="320" y="220" />
              <mxPoint x="290" y="240" />
            </Array>
            <mxPoint as="offset" />
          </mxGeometry>
        </mxCell>
        <mxCell id="uNYKcoVuDFgx-AQFCIqF-18" value="HTTP GET /api/Problems&lt;br style=&quot;font-size: 20px;&quot;&gt;получение списка задач" style="html=1;verticalAlign=bottom;endArrow=classicThin;edgeStyle=elbowEdgeStyle;elbow=vertical;curved=0;rounded=0;endFill=1;fontFamily=Times New Roman;fontSize=20;" parent="1" source="uNYKcoVuDFgx-AQFCIqF-15" target="uNYKcoVuDFgx-AQFCIqF-17" edge="1">
          <mxGeometry x="0.0462" y="-56" width="80" relative="1" as="geometry">
            <mxPoint x="500" y="250" as="sourcePoint" />
            <mxPoint x="660" y="250" as="targetPoint" />
            <Array as="points">
              <mxPoint x="575" y="250" />
              <mxPoint x="545" y="270" />
            </Array>
            <mxPoint as="offset" />
          </mxGeometry>
        </mxCell>
        <mxCell id="uNYKcoVuDFgx-AQFCIqF-19" value="Сервис отправки уведомлений" style="shape=umlLifeline;perimeter=lifelinePerimeter;whiteSpace=wrap;html=1;container=1;dropTarget=0;collapsible=0;recursiveResize=0;outlineConnect=0;portConstraint=eastwest;newEdgeStyle={&quot;edgeStyle&quot;:&quot;elbowEdgeStyle&quot;,&quot;elbow&quot;:&quot;vertical&quot;,&quot;curved&quot;:0,&quot;rounded&quot;:0};fontFamily=Times New Roman;fontSize=20;size=68;" parent="1" vertex="1">
          <mxGeometry x="1174" y="139" width="120" height="890" as="geometry" />
        </mxCell>
        <mxCell id="OOK6wu0mRHpL1KG_avXk-5" value="" style="html=1;points=[];perimeter=orthogonalPerimeter;outlineConnect=0;targetShapes=umlLifeline;portConstraint=eastwest;newEdgeStyle={&quot;edgeStyle&quot;:&quot;elbowEdgeStyle&quot;,&quot;elbow&quot;:&quot;vertical&quot;,&quot;curved&quot;:0,&quot;rounded&quot;:0};" parent="uNYKcoVuDFgx-AQFCIqF-19" vertex="1">
          <mxGeometry x="55" y="680" width="10" height="60" as="geometry" />
        </mxCell>
        <mxCell id="xIKeQf0XdznSWOi6v45g-4" value="" style="shape=umlDestroy;whiteSpace=wrap;html=1;strokeWidth=1;targetShapes=umlLifeline;" parent="uNYKcoVuDFgx-AQFCIqF-19" vertex="1">
          <mxGeometry x="50.5" y="880" width="19" height="21" as="geometry" />
        </mxCell>
        <mxCell id="uNYKcoVuDFgx-AQFCIqF-21" value="Вызов метода&amp;nbsp;GetAll&lt;br style=&quot;font-size: 20px;&quot;&gt;на получения списка задач" style="html=1;verticalAlign=bottom;endArrow=blockThin;edgeStyle=elbowEdgeStyle;elbow=vertical;curved=0;rounded=0;endFill=1;fontFamily=Times New Roman;fontSize=20;" parent="1" source="uNYKcoVuDFgx-AQFCIqF-17" target="uNYKcoVuDFgx-AQFCIqF-20" edge="1">
          <mxGeometry x="-0.0118" y="-56" width="80" relative="1" as="geometry">
            <mxPoint x="680" y="260" as="sourcePoint" />
            <mxPoint x="840" y="260" as="targetPoint" />
            <Array as="points">
              <mxPoint x="750" y="260" />
              <mxPoint x="720" y="280" />
            </Array>
            <mxPoint as="offset" />
          </mxGeometry>
        </mxCell>
        <mxCell id="uNYKcoVuDFgx-AQFCIqF-23" value="SQL SELECT запрос к таблице Problems" style="html=1;verticalAlign=bottom;endArrow=blockThin;edgeStyle=elbowEdgeStyle;elbow=vertical;curved=0;rounded=0;endFill=1;fontFamily=Times New Roman;fontSize=20;" parent="1" source="uNYKcoVuDFgx-AQFCIqF-20" target="uNYKcoVuDFgx-AQFCIqF-22" edge="1">
          <mxGeometry x="-0.3405" y="-34" width="80" relative="1" as="geometry">
            <mxPoint x="920" y="270" as="sourcePoint" />
            <mxPoint x="1200" y="270" as="targetPoint" />
            <Array as="points">
              <mxPoint x="1105" y="270" />
              <mxPoint x="1075" y="290" />
            </Array>
            <mxPoint as="offset" />
          </mxGeometry>
        </mxCell>
        <mxCell id="uNYKcoVuDFgx-AQFCIqF-24" value="Возврат списка задач" style="html=1;verticalAlign=bottom;endArrow=blockThin;edgeStyle=elbowEdgeStyle;elbow=vertical;curved=0;rounded=0;endFill=1;dashed=1;fontFamily=Times New Roman;fontSize=20;" parent="1" source="uNYKcoVuDFgx-AQFCIqF-22" target="uNYKcoVuDFgx-AQFCIqF-20" edge="1">
          <mxGeometry x="-0.6078" y="34" width="80" relative="1" as="geometry">
            <mxPoint x="1394.9999999999998" y="326" as="sourcePoint" />
            <mxPoint x="855" y="326" as="targetPoint" />
            <Array as="points">
              <mxPoint x="1124.9999999999995" y="326" />
              <mxPoint x="1154.9999999999995" y="346" />
            </Array>
            <mxPoint as="offset" />
          </mxGeometry>
        </mxCell>
        <mxCell id="uNYKcoVuDFgx-AQFCIqF-25" value="Возврат списка задач" style="html=1;verticalAlign=bottom;endArrow=blockThin;edgeStyle=elbowEdgeStyle;elbow=vertical;curved=0;rounded=0;endFill=1;dashed=1;fontFamily=Times New Roman;fontSize=20;" parent="1" target="uNYKcoVuDFgx-AQFCIqF-17" edge="1" source="uNYKcoVuDFgx-AQFCIqF-20">
          <mxGeometry x="-0.2602" y="36" width="80" relative="1" as="geometry">
            <mxPoint x="850" y="330" as="sourcePoint" />
            <mxPoint x="680" y="330" as="targetPoint" />
            <Array as="points">
              <mxPoint x="849.9999999999995" y="330" />
              <mxPoint x="879.9999999999995" y="350" />
            </Array>
            <mxPoint as="offset" />
          </mxGeometry>
        </mxCell>
        <mxCell id="uNYKcoVuDFgx-AQFCIqF-26" value="HTTP GET /api/Problems&lt;br style=&quot;font-size: 20px;&quot;&gt;&amp;nbsp;ответ со списком задач" style="html=1;verticalAlign=bottom;endArrow=classicThin;edgeStyle=elbowEdgeStyle;elbow=vertical;curved=0;rounded=0;endFill=1;dashed=1;fontFamily=Times New Roman;fontSize=20;" parent="1" target="uNYKcoVuDFgx-AQFCIqF-15" edge="1">
          <mxGeometry x="0.0085" y="56" width="80" relative="1" as="geometry">
            <mxPoint x="665" y="350" as="sourcePoint" />
            <mxPoint x="500" y="350" as="targetPoint" />
            <Array as="points">
              <mxPoint x="664.9999999999995" y="350" />
              <mxPoint x="694.9999999999995" y="370" />
            </Array>
            <mxPoint as="offset" />
          </mxGeometry>
        </mxCell>
        <mxCell id="uNYKcoVuDFgx-AQFCIqF-29" value="Отображения доски задач" style="html=1;verticalAlign=bottom;endArrow=classicThin;edgeStyle=elbowEdgeStyle;elbow=vertical;curved=0;rounded=0;endFill=1;dashed=1;fontFamily=Times New Roman;fontSize=20;" parent="1" source="xIKeQf0XdznSWOi6v45g-9" edge="1">
          <mxGeometry width="80" relative="1" as="geometry">
            <mxPoint x="349" y="435" as="sourcePoint" />
            <mxPoint x="103" y="435.2105263157895" as="targetPoint" />
          </mxGeometry>
        </mxCell>
        <mxCell id="uNYKcoVuDFgx-AQFCIqF-30" value="Перетаскивание задачи &lt;br style=&quot;font-size: 20px;&quot;&gt;в колонку DONE" style="html=1;verticalAlign=bottom;endArrow=classicThin;edgeStyle=elbowEdgeStyle;elbow=vertical;curved=0;rounded=0;endFill=1;fontFamily=Times New Roman;fontSize=20;" parent="1" source="uNYKcoVuDFgx-AQFCIqF-14" target="uNYKcoVuDFgx-AQFCIqF-15" edge="1">
          <mxGeometry x="-0.0154" y="-59" width="80" relative="1" as="geometry">
            <mxPoint x="250" y="480" as="sourcePoint" />
            <mxPoint x="410" y="480" as="targetPoint" />
            <Array as="points">
              <mxPoint x="325" y="480" />
              <mxPoint x="295" y="500" />
            </Array>
            <mxPoint as="offset" />
          </mxGeometry>
        </mxCell>
        <mxCell id="uNYKcoVuDFgx-AQFCIqF-31" value="HTTP PUT /api/Problems/&lt;br&gt;{problemId}/UpdateStatus&lt;br&gt;обновление статуса задачи" style="html=1;verticalAlign=bottom;endArrow=classicThin;edgeStyle=elbowEdgeStyle;elbow=vertical;curved=0;rounded=0;endFill=1;fontFamily=Times New Roman;fontSize=20;" parent="1" source="uNYKcoVuDFgx-AQFCIqF-15" target="uNYKcoVuDFgx-AQFCIqF-32" edge="1">
          <mxGeometry x="-0.0183" y="-81" width="80" relative="1" as="geometry">
            <mxPoint x="490" y="500" as="sourcePoint" />
            <mxPoint x="660" y="500" as="targetPoint" />
            <Array as="points">
              <mxPoint x="570" y="500" />
              <mxPoint x="540" y="520" />
            </Array>
            <mxPoint as="offset" />
          </mxGeometry>
        </mxCell>
        <mxCell id="uNYKcoVuDFgx-AQFCIqF-34" value="Вызов метода UpdateStatus&lt;br style=&quot;font-size: 20px;&quot;&gt;на обновление статуса&lt;br style=&quot;font-size: 20px;&quot;&gt;задачи" style="html=1;verticalAlign=bottom;endArrow=blockThin;edgeStyle=elbowEdgeStyle;elbow=vertical;curved=0;rounded=0;endFill=1;fontFamily=Times New Roman;fontSize=20;" parent="1" source="uNYKcoVuDFgx-AQFCIqF-32" target="uNYKcoVuDFgx-AQFCIqF-33" edge="1">
          <mxGeometry x="-0.0163" y="-87" width="80" relative="1" as="geometry">
            <mxPoint x="700" y="510" as="sourcePoint" />
            <mxPoint x="840" y="510" as="targetPoint" />
            <Array as="points">
              <mxPoint x="745" y="510" />
              <mxPoint x="715" y="530" />
            </Array>
            <mxPoint as="offset" />
          </mxGeometry>
        </mxCell>
        <mxCell id="uNYKcoVuDFgx-AQFCIqF-36" value="SQL SELECT запрос к таблице Problems" style="html=1;verticalAlign=bottom;endArrow=blockThin;edgeStyle=elbowEdgeStyle;elbow=vertical;curved=0;rounded=0;endFill=1;fontFamily=Times New Roman;fontSize=20;" parent="1" source="uNYKcoVuDFgx-AQFCIqF-33" target="uNYKcoVuDFgx-AQFCIqF-35" edge="1">
          <mxGeometry x="-0.3262" y="-31" width="80" relative="1" as="geometry">
            <mxPoint x="865" y="520" as="sourcePoint" />
            <mxPoint x="1190" y="520" as="targetPoint" />
            <Array as="points">
              <mxPoint x="1115" y="520" />
              <mxPoint x="1085" y="540" />
            </Array>
            <mxPoint as="offset" />
          </mxGeometry>
        </mxCell>
        <mxCell id="uNYKcoVuDFgx-AQFCIqF-37" value="Возврат задачи" style="html=1;verticalAlign=bottom;endArrow=blockThin;edgeStyle=elbowEdgeStyle;elbow=vertical;curved=0;rounded=0;endFill=1;dashed=1;fontFamily=Times New Roman;fontSize=20;" parent="1" source="uNYKcoVuDFgx-AQFCIqF-35" target="uNYKcoVuDFgx-AQFCIqF-33" edge="1">
          <mxGeometry x="-0.7354" y="28" width="80" relative="1" as="geometry">
            <mxPoint x="1200" y="560" as="sourcePoint" />
            <mxPoint x="860" y="560" as="targetPoint" />
            <Array as="points">
              <mxPoint x="1119.9999999999995" y="560" />
              <mxPoint x="1149.9999999999995" y="580" />
            </Array>
            <mxPoint as="offset" />
          </mxGeometry>
        </mxCell>
        <mxCell id="uNYKcoVuDFgx-AQFCIqF-39" value="SQL SELECT запрос к таблице Users" style="html=1;verticalAlign=bottom;endArrow=blockThin;edgeStyle=elbowEdgeStyle;elbow=vertical;curved=0;rounded=0;endFill=1;fontFamily=Times New Roman;fontSize=20;" parent="1" source="uNYKcoVuDFgx-AQFCIqF-33" target="uNYKcoVuDFgx-AQFCIqF-38" edge="1">
          <mxGeometry x="-0.3868" y="-30" width="80" relative="1" as="geometry">
            <mxPoint x="870" y="590" as="sourcePoint" />
            <mxPoint x="1200" y="590" as="targetPoint" />
            <Array as="points">
              <mxPoint x="1130" y="590" />
              <mxPoint x="1100" y="610" />
            </Array>
            <mxPoint as="offset" />
          </mxGeometry>
        </mxCell>
        <mxCell id="uNYKcoVuDFgx-AQFCIqF-40" value="Возврат пользователя" style="html=1;verticalAlign=bottom;endArrow=blockThin;edgeStyle=elbowEdgeStyle;elbow=vertical;curved=0;rounded=0;endFill=1;dashed=1;fontFamily=Times New Roman;fontSize=20;" parent="1" source="uNYKcoVuDFgx-AQFCIqF-38" target="uNYKcoVuDFgx-AQFCIqF-33" edge="1">
          <mxGeometry x="-0.6613" y="27" width="80" relative="1" as="geometry">
            <mxPoint x="1200" y="630" as="sourcePoint" />
            <mxPoint x="860" y="630" as="targetPoint" />
            <Array as="points">
              <mxPoint x="1114.9999999999995" y="630" />
              <mxPoint x="1144.9999999999995" y="650" />
            </Array>
            <mxPoint as="offset" />
          </mxGeometry>
        </mxCell>
        <mxCell id="OOK6wu0mRHpL1KG_avXk-3" value="SQL UPDATE запрос к таблице Problems" style="html=1;verticalAlign=bottom;endArrow=blockThin;edgeStyle=elbowEdgeStyle;elbow=vertical;curved=0;rounded=0;endFill=1;fontFamily=Times New Roman;fontSize=20;" parent="1" source="uNYKcoVuDFgx-AQFCIqF-33" target="OOK6wu0mRHpL1KG_avXk-1" edge="1">
          <mxGeometry x="-0.3262" y="-31" width="80" relative="1" as="geometry">
            <mxPoint x="870" y="660" as="sourcePoint" />
            <mxPoint x="1200" y="660" as="targetPoint" />
            <Array as="points">
              <mxPoint x="1145" y="660" />
              <mxPoint x="1115" y="680" />
            </Array>
            <mxPoint as="offset" />
          </mxGeometry>
        </mxCell>
        <mxCell id="OOK6wu0mRHpL1KG_avXk-4" value="Возврат количества затронутых записей" style="html=1;verticalAlign=bottom;endArrow=blockThin;edgeStyle=elbowEdgeStyle;elbow=vertical;curved=0;rounded=0;endFill=1;dashed=1;fontFamily=Times New Roman;fontSize=20;" parent="1" source="OOK6wu0mRHpL1KG_avXk-1" target="uNYKcoVuDFgx-AQFCIqF-33" edge="1">
          <mxGeometry x="-0.3545" y="29" width="80" relative="1" as="geometry">
            <mxPoint x="1190" y="700" as="sourcePoint" />
            <mxPoint x="870" y="700" as="targetPoint" />
            <Array as="points">
              <mxPoint x="1129.9999999999995" y="700" />
              <mxPoint x="1159.9999999999995" y="720" />
            </Array>
            <mxPoint as="offset" />
          </mxGeometry>
        </mxCell>
        <mxCell id="OOK6wu0mRHpL1KG_avXk-6" value="Отправка уведомления об &lt;br&gt;изменении статуса задач" style="html=1;verticalAlign=bottom;endArrow=classicThin;edgeStyle=elbowEdgeStyle;elbow=vertical;curved=0;rounded=0;endFill=1;fontFamily=Times New Roman;fontSize=20;" parent="1" edge="1">
          <mxGeometry x="-0.1745" y="-55" width="80" relative="1" as="geometry">
            <mxPoint x="931" y="821" as="sourcePoint" />
            <mxPoint x="1229" y="821" as="targetPoint" />
            <mxPoint as="offset" />
          </mxGeometry>
        </mxCell>
        <mxCell id="OOK6wu0mRHpL1KG_avXk-8" value="SQL UPDATE запрос к таблице Wares" style="html=1;verticalAlign=bottom;endArrow=blockThin;edgeStyle=elbowEdgeStyle;elbow=vertical;curved=0;rounded=0;endFill=1;fontFamily=Times New Roman;fontSize=20;" parent="1" source="uNYKcoVuDFgx-AQFCIqF-33" target="OOK6wu0mRHpL1KG_avXk-7" edge="1">
          <mxGeometry x="-0.3761" y="-30" width="80" relative="1" as="geometry">
            <mxPoint x="860" y="740" as="sourcePoint" />
            <mxPoint x="1200" y="740" as="targetPoint" />
            <Array as="points">
              <mxPoint x="1140" y="740" />
              <mxPoint x="1110" y="760" />
            </Array>
            <mxPoint as="offset" />
          </mxGeometry>
        </mxCell>
        <mxCell id="OOK6wu0mRHpL1KG_avXk-9" value="Возврат количества затронутых записей" style="html=1;verticalAlign=bottom;endArrow=blockThin;edgeStyle=elbowEdgeStyle;elbow=vertical;curved=0;rounded=0;endFill=1;dashed=1;fontFamily=Times New Roman;fontSize=20;" parent="1" source="OOK6wu0mRHpL1KG_avXk-7" target="uNYKcoVuDFgx-AQFCIqF-33" edge="1">
          <mxGeometry x="-0.369" y="30" width="80" relative="1" as="geometry">
            <mxPoint x="1200" y="780" as="sourcePoint" />
            <mxPoint x="860" y="780" as="targetPoint" />
            <Array as="points">
              <mxPoint x="1124.9999999999995" y="780" />
              <mxPoint x="1154.9999999999995" y="800" />
            </Array>
            <mxPoint as="offset" />
          </mxGeometry>
        </mxCell>
        <mxCell id="OOK6wu0mRHpL1KG_avXk-10" value="Результат отправки&lt;br style=&quot;font-size: 20px;&quot;&gt;уведомления" style="html=1;verticalAlign=bottom;endArrow=classicThin;edgeStyle=elbowEdgeStyle;elbow=vertical;curved=0;rounded=0;endFill=1;dashed=1;fontFamily=Times New Roman;fontSize=20;" parent="1" source="OOK6wu0mRHpL1KG_avXk-5" target="uNYKcoVuDFgx-AQFCIqF-33" edge="1">
          <mxGeometry x="-0.3947" y="54" width="80" relative="1" as="geometry">
            <mxPoint x="1020" y="880" as="sourcePoint" />
            <mxPoint x="860" y="880" as="targetPoint" />
            <Array as="points">
              <mxPoint x="939.9999999999995" y="880" />
              <mxPoint x="969.9999999999995" y="900" />
            </Array>
            <mxPoint as="offset" />
          </mxGeometry>
        </mxCell>
        <mxCell id="OOK6wu0mRHpL1KG_avXk-11" value="Результат обновления&lt;br style=&quot;font-size: 20px;&quot;&gt;статуса задачи" style="html=1;verticalAlign=bottom;endArrow=blockThin;edgeStyle=elbowEdgeStyle;elbow=vertical;curved=0;rounded=0;endFill=1;dashed=1;exitX=0.5;exitY=1;exitDx=0;exitDy=0;exitPerimeter=0;fontFamily=Times New Roman;fontSize=20;" parent="1" source="uNYKcoVuDFgx-AQFCIqF-33" target="uNYKcoVuDFgx-AQFCIqF-32" edge="1">
          <mxGeometry x="-0.2095" y="54" width="80" relative="1" as="geometry">
            <mxPoint x="840" y="900" as="sourcePoint" />
            <mxPoint x="680" y="900" as="targetPoint" />
            <Array as="points">
              <mxPoint x="759.9999999999995" y="900" />
              <mxPoint x="789.9999999999995" y="920" />
            </Array>
            <mxPoint as="offset" />
          </mxGeometry>
        </mxCell>
        <mxCell id="OOK6wu0mRHpL1KG_avXk-12" value="HTTP PUT /api/Problems/&lt;br&gt;{problemId}/UpdateStatus ответ с &lt;br&gt;результатом обновления задачи" style="html=1;verticalAlign=bottom;endArrow=classicThin;edgeStyle=elbowEdgeStyle;elbow=vertical;curved=0;rounded=0;endFill=1;dashed=1;fontFamily=Times New Roman;fontSize=20;" parent="1" source="uNYKcoVuDFgx-AQFCIqF-32" target="uNYKcoVuDFgx-AQFCIqF-15" edge="1">
          <mxGeometry x="-0.011" y="-11" width="80" relative="1" as="geometry">
            <mxPoint x="660" y="910" as="sourcePoint" />
            <mxPoint x="430" y="910" as="targetPoint" />
            <Array as="points">
              <mxPoint x="659.9999999999995" y="910" />
              <mxPoint x="689.9999999999995" y="930" />
            </Array>
            <mxPoint as="offset" />
          </mxGeometry>
        </mxCell>
        <mxCell id="OOK6wu0mRHpL1KG_avXk-15" value="Отображения обновлённой&lt;br style=&quot;font-size: 20px;&quot;&gt;&amp;nbsp;доски задач" style="html=1;verticalAlign=bottom;endArrow=classicThin;edgeStyle=elbowEdgeStyle;elbow=vertical;curved=0;rounded=0;endFill=1;dashed=1;fontFamily=Times New Roman;fontSize=20;" parent="1" edge="1" source="uNYKcoVuDFgx-AQFCIqF-15">
          <mxGeometry width="80" relative="1" as="geometry">
            <mxPoint x="382" y="960" as="sourcePoint" />
            <mxPoint x="103" y="960" as="targetPoint" />
          </mxGeometry>
        </mxCell>
        <mxCell id="uNYKcoVuDFgx-AQFCIqF-14" value="" style="html=1;points=[];perimeter=orthogonalPerimeter;outlineConnect=0;targetShapes=umlLifeline;portConstraint=eastwest;newEdgeStyle={&quot;edgeStyle&quot;:&quot;elbowEdgeStyle&quot;,&quot;elbow&quot;:&quot;vertical&quot;,&quot;curved&quot;:0,&quot;rounded&quot;:0};" parent="1" vertex="1">
          <mxGeometry x="93" y="216" width="10" height="780" as="geometry" />
        </mxCell>
        <mxCell id="xIKeQf0XdznSWOi6v45g-5" value="" style="shape=umlDestroy;whiteSpace=wrap;html=1;strokeWidth=1;targetShapes=umlLifeline;" parent="1" vertex="1">
          <mxGeometry x="916.5" y="1017" width="19" height="21" as="geometry" />
        </mxCell>
        <mxCell id="xIKeQf0XdznSWOi6v45g-9" value="" style="shape=umlLifeline;perimeter=lifelinePerimeter;whiteSpace=wrap;html=1;container=1;dropTarget=0;collapsible=0;recursiveResize=0;outlineConnect=0;portConstraint=eastwest;newEdgeStyle={&quot;edgeStyle&quot;:&quot;elbowEdgeStyle&quot;,&quot;elbow&quot;:&quot;vertical&quot;,&quot;curved&quot;:0,&quot;rounded&quot;:0};participant=umlBoundary;" parent="1" vertex="1">
          <mxGeometry x="344" y="139" width="50" height="890" as="geometry" />
        </mxCell>
        <mxCell id="xIKeQf0XdznSWOi6v45g-7" value="" style="shape=umlDestroy;whiteSpace=wrap;html=1;strokeWidth=1;targetShapes=umlLifeline;" parent="xIKeQf0XdznSWOi6v45g-9" vertex="1">
          <mxGeometry x="15.5" y="879" width="19" height="21" as="geometry" />
        </mxCell>
        <mxCell id="xIKeQf0XdznSWOi6v45g-10" value="&lt;span style=&quot;font-weight: normal; font-size: 20px;&quot;&gt;Пользователь&lt;/span&gt;" style="text;align=center;fontStyle=1;verticalAlign=middle;spacingLeft=3;spacingRight=3;rotatable=0;points=[[0,0.5],[1,0.5]];portConstraint=eastwest;html=1;fillColor=default;fontFamily=Times New Roman;fontSize=20;" parent="1" vertex="1">
          <mxGeometry x="59" y="187" width="80" height="22" as="geometry" />
        </mxCell>
        <mxCell id="uNYKcoVuDFgx-AQFCIqF-15" value="" style="html=1;points=[];perimeter=orthogonalPerimeter;outlineConnect=0;targetShapes=umlLifeline;portConstraint=eastwest;newEdgeStyle={&quot;edgeStyle&quot;:&quot;elbowEdgeStyle&quot;,&quot;elbow&quot;:&quot;vertical&quot;,&quot;curved&quot;:0,&quot;rounded&quot;:0};" parent="1" vertex="1">
          <mxGeometry x="364" y="219" width="10" height="779" as="geometry" />
        </mxCell>
        <mxCell id="OOK6wu0mRHpL1KG_avXk-13" value="Обновление интерфейса&lt;br style=&quot;font-size: 20px;&quot;&gt;доски задач" style="html=1;align=center;spacingLeft=2;endArrow=classicThin;rounded=0;edgeStyle=orthogonalEdgeStyle;curved=0;rounded=0;endFill=1;fontFamily=Times New Roman;fontSize=20;" parent="1" edge="1">
          <mxGeometry x="0.4948" y="27" relative="1" as="geometry">
            <mxPoint x="374" y="930.037037037037" as="sourcePoint" />
            <Array as="points">
              <mxPoint x="660" y="930" />
              <mxPoint x="660" y="940" />
            </Array>
            <mxPoint x="374" y="940.037037037037" as="targetPoint" />
            <mxPoint as="offset" />
          </mxGeometry>
        </mxCell>
        <mxCell id="uNYKcoVuDFgx-AQFCIqF-28" value="Инициализация интерфейса&lt;br style=&quot;font-size: 20px;&quot;&gt;доски задач" style="html=1;align=center;spacingLeft=2;endArrow=classicThin;rounded=0;edgeStyle=orthogonalEdgeStyle;curved=0;rounded=0;endFill=1;fontFamily=Times New Roman;fontSize=20;" parent="1" source="uNYKcoVuDFgx-AQFCIqF-15" target="uNYKcoVuDFgx-AQFCIqF-15" edge="1">
          <mxGeometry x="0.5038" y="29" relative="1" as="geometry">
            <mxPoint x="430" y="410" as="sourcePoint" />
            <Array as="points">
              <mxPoint x="660" y="410" />
              <mxPoint x="660" y="420" />
            </Array>
            <mxPoint x="440" y="440" as="targetPoint" />
            <mxPoint as="offset" />
          </mxGeometry>
        </mxCell>
        <mxCell id="xIKeQf0XdznSWOi6v45g-11" value="&lt;span style=&quot;font-weight: 400; font-size: 20px;&quot;&gt;GUI&lt;/span&gt;" style="text;align=center;fontStyle=1;verticalAlign=middle;spacingLeft=3;spacingRight=3;rotatable=0;points=[[0,0.5],[1,0.5]];portConstraint=eastwest;html=1;fillColor=default;fontFamily=Times New Roman;fontSize=20;" parent="1" vertex="1">
          <mxGeometry x="329" y="183" width="80" height="26" as="geometry" />
        </mxCell>
        <mxCell id="xIKeQf0XdznSWOi6v45g-13" value="" style="shape=umlLifeline;perimeter=lifelinePerimeter;whiteSpace=wrap;html=1;container=1;dropTarget=0;collapsible=0;recursiveResize=0;outlineConnect=0;portConstraint=eastwest;newEdgeStyle={&quot;edgeStyle&quot;:&quot;elbowEdgeStyle&quot;,&quot;elbow&quot;:&quot;vertical&quot;,&quot;curved&quot;:0,&quot;rounded&quot;:0};participant=umlEntity;fontFamily=Times New Roman;" parent="1" vertex="1">
          <mxGeometry x="1477" y="141" width="40" height="888" as="geometry" />
        </mxCell>
        <mxCell id="xIKeQf0XdznSWOi6v45g-3" value="" style="shape=umlDestroy;whiteSpace=wrap;html=1;strokeWidth=1;targetShapes=umlLifeline;" parent="xIKeQf0XdznSWOi6v45g-13" vertex="1">
          <mxGeometry x="10.5" y="878" width="19" height="21" as="geometry" />
        </mxCell>
        <mxCell id="uNYKcoVuDFgx-AQFCIqF-22" value="" style="html=1;points=[];perimeter=orthogonalPerimeter;outlineConnect=0;targetShapes=umlLifeline;portConstraint=eastwest;newEdgeStyle={&quot;edgeStyle&quot;:&quot;elbowEdgeStyle&quot;,&quot;elbow&quot;:&quot;vertical&quot;,&quot;curved&quot;:0,&quot;rounded&quot;:0};" parent="1" vertex="1">
          <mxGeometry x="1492" y="270" width="10" height="57" as="geometry" />
        </mxCell>
        <mxCell id="uNYKcoVuDFgx-AQFCIqF-35" value="" style="html=1;points=[];perimeter=orthogonalPerimeter;outlineConnect=0;targetShapes=umlLifeline;portConstraint=eastwest;newEdgeStyle={&quot;edgeStyle&quot;:&quot;elbowEdgeStyle&quot;,&quot;elbow&quot;:&quot;vertical&quot;,&quot;curved&quot;:0,&quot;rounded&quot;:0};" parent="1" vertex="1">
          <mxGeometry x="1492" y="519" width="10" height="40" as="geometry" />
        </mxCell>
        <mxCell id="uNYKcoVuDFgx-AQFCIqF-38" value="" style="html=1;points=[];perimeter=orthogonalPerimeter;outlineConnect=0;targetShapes=umlLifeline;portConstraint=eastwest;newEdgeStyle={&quot;edgeStyle&quot;:&quot;elbowEdgeStyle&quot;,&quot;elbow&quot;:&quot;vertical&quot;,&quot;curved&quot;:0,&quot;rounded&quot;:0};" parent="1" vertex="1">
          <mxGeometry x="1492" y="590" width="10" height="40" as="geometry" />
        </mxCell>
        <mxCell id="OOK6wu0mRHpL1KG_avXk-1" value="" style="html=1;points=[];perimeter=orthogonalPerimeter;outlineConnect=0;targetShapes=umlLifeline;portConstraint=eastwest;newEdgeStyle={&quot;edgeStyle&quot;:&quot;elbowEdgeStyle&quot;,&quot;elbow&quot;:&quot;vertical&quot;,&quot;curved&quot;:0,&quot;rounded&quot;:0};" parent="1" vertex="1">
          <mxGeometry x="1492" y="659" width="10" height="40" as="geometry" />
        </mxCell>
        <mxCell id="OOK6wu0mRHpL1KG_avXk-7" value="" style="html=1;points=[];perimeter=orthogonalPerimeter;outlineConnect=0;targetShapes=umlLifeline;portConstraint=eastwest;newEdgeStyle={&quot;edgeStyle&quot;:&quot;elbowEdgeStyle&quot;,&quot;elbow&quot;:&quot;vertical&quot;,&quot;curved&quot;:0,&quot;rounded&quot;:0};" parent="1" vertex="1">
          <mxGeometry x="1492" y="740" width="10" height="40" as="geometry" />
        </mxCell>
        <mxCell id="xIKeQf0XdznSWOi6v45g-14" value="&lt;span style=&quot;font-weight: 400; font-size: 20px;&quot;&gt;База данных&lt;/span&gt;" style="text;align=center;fontStyle=1;verticalAlign=middle;spacingLeft=3;spacingRight=3;rotatable=0;points=[[0,0.5],[1,0.5]];portConstraint=eastwest;html=1;fillColor=default;fontFamily=Times New Roman;fontSize=20;" parent="1" vertex="1">
          <mxGeometry x="1458" y="188" width="80" height="26" as="geometry" />
        </mxCell>
      </root>
    </mxGraphModel>
  </diagram>
</mxfile>
